<svg width="247" height="251" viewBox="0 0 247 251" fill="none" xmlns="http://www.w3.org/2000/svg">
<path d="M97.333 10.8667C96.2663 13.1334 95.5997 15 95.9997 15C98.533 15 90.933 24.0667 84.7997 28.4667C80.7997 31.4 77.333 34.6 77.1997 35.6667C76.7997 38.2 76.133 38.3334 86.6663 33.5334C124.4 16.4667 169.6 24.2 200.266 52.7334C222.8 73.8 234.4 101.533 233.333 131.667C232.666 148.733 228.4 165.267 221.066 179.267C220.8 179.933 220.933 180.333 221.333 180.333C222.8 180.333 229.733 163.933 232.133 154.867C233.466 149.8 234.533 140.067 234.8 131C235.066 118.333 234.666 113.533 232.133 103.533C223.733 71.4 203.733 47.1334 173.6 33C160.533 26.7334 150.4 24.3334 134.533 23.4C116 22.3334 104.8 24.4667 83.9997 32.8667C78.7997 35 78.7997 35 81.9997 32.7334C89.9997 27 96.6663 19.6667 98.7997 14.2C101.466 7.2667 100.533 4.8667 97.333 10.8667Z" fill="white"/>
<path d="M85.3332 20.6C66.5332 33.4 63.5999 35.9333 60.9332 43.2667C59.4665 47.1333 57.0665 51 55.5999 52.0667C52.9332 53.8 52.9332 53.6667 54.1332 48.3333C55.3332 43.1333 54.9332 36.2 53.0665 25.6667C52.2665 21.4 52.1332 21.8 50.5332 30.6C49.5999 35.9333 46.3999 45.6667 43.4665 52.3333C40.1332 59.5333 37.9999 66.3333 37.9999 69.4C37.9999 72.2 37.1999 75.5333 36.2665 76.8667C34.7999 78.8667 34.6665 77.2667 35.0665 66.7333C35.7332 50.3333 35.0665 47.4 32.1332 54.0667C28.5332 62.3333 25.9999 77.1333 25.8665 91.4L25.7332 105L24.1332 97.6667C22.5332 90.0667 17.1999 79.5333 13.1999 76.2C11.1999 74.6 11.0665 74.7333 11.7332 78.3333C12.2665 80.6 12.9332 86.4667 13.4665 91.6667C14.5332 103.533 16.1332 111.533 18.7999 116.6C21.8665 122.6 22.3999 120.2 19.4665 113.533C17.0665 108.2 13.1999 82.0667 14.5332 80.7333C15.4665 79.8 20.3999 88.8667 21.8665 94.3334C22.6665 97.2667 23.1999 109 23.1999 120.467C23.1999 143.8 25.0665 154.733 31.5999 170.2C47.3332 207.133 83.1999 232.2 123.867 234.6C131.333 235 137.067 235 136.667 234.6C136.267 234.2 130.933 233.533 124.667 233.133C96.9332 231 76.6665 222.333 57.7332 204.6C36.5332 184.6 24.6665 157.4 24.6665 128.333V117.667L36.5332 105.933C46.2665 96.3334 48.7999 93 50.3999 87.6667C52.2665 81 51.9999 75.8 49.8665 77.1333C49.1999 77.5333 49.0665 79.2667 49.4665 81C50.6665 86.0667 45.5999 95 36.1332 104.333C22.1332 117.933 25.5999 107.533 40.1332 91.9334C44.7999 87 48.6665 82.3333 48.6665 81.5333C48.6665 80.0667 33.4665 96.0667 29.5999 101.533L27.0665 105L28.1332 101.667C30.5332 93 34.5332 83.9333 37.0665 81.1333C38.6665 79.4 43.5999 76.6 47.9999 74.8667C57.3332 71.4 65.0665 66.3333 70.6665 60.3333L74.6665 55.9333L70.1332 56.8667C64.9332 57.8 54.2665 62.6 47.3332 67.1333L42.6665 70.2L47.7332 63.9333C50.6665 60.4667 52.3999 57 51.8665 56.2C51.3332 55.2667 51.4665 55 52.3999 55.5333C53.1999 55.9333 55.4665 55.6667 57.5999 54.8667C59.5999 53.9333 67.1999 53.1333 74.3999 52.8667C92.1332 52.3333 96.7999 51.4 103.867 46.8667C110.533 42.7333 112.267 39.5333 106.4 42.3333C101.067 44.7333 66.6665 46.3333 68.1332 44.0667C69.5999 41.8 69.9999 39 68.9332 39C68.5332 39 66.6665 40.3333 64.9332 41.9333L61.5999 45L63.7332 41C66.3999 35.5333 69.9999 32.6 83.7332 23.8C94.3999 16.8667 96.9332 14.7333 94.3999 15.1333C93.7332 15.1333 89.7332 17.6667 85.3332 20.6ZM52.3999 49C51.7332 51.9333 48.6665 58.0667 45.5999 62.7333C37.8665 74.3333 37.3332 69.5333 44.6665 53.5333C47.7332 46.8667 50.6665 39 51.0665 35.9333L51.8665 30.3333L52.6665 37C53.1999 40.6 53.0665 46.0667 52.3999 49ZM102 46.6C102 46.8667 100.4 47.6667 98.3999 48.6C95.0665 49.8 60.6665 52.6 59.5999 51.5333C58.1332 50.4667 66.1332 47.9333 73.8665 47.2667C83.3332 46.3333 102 45.9333 102 46.6ZM64.3999 63.5333C58.7999 68.7333 41.3332 77.4 39.7332 75.9333C38.2665 74.3333 66.3999 57.4 69.9999 57.6667C70.3999 57.8 67.8665 60.3333 64.3999 63.5333ZM33.1999 70.8667C32.9332 75.6667 31.5999 83.2667 30.1332 87.6667L27.3332 95.6667L27.8665 84.3333C28.5332 71.1333 31.0665 57.8 32.6665 60.3333C33.1999 61.2667 33.4665 65.9333 33.1999 70.8667Z" fill="white"/>
<path d="M72.7996 36.2C70.7996 37.5334 69.4663 41.6667 71.0663 41.6667C73.0663 41.6667 75.8663 39.1334 76.133 37.1334C76.533 34.7334 75.5996 34.4667 72.7996 36.2Z" fill="white"/>
<path d="M129.6 85C122.933 87.2667 118.266 91.6667 115.2 98.3333C113.066 102.867 112.666 107.267 112.666 127.667C112.533 152.6 111.466 159 106.4 164.6C99.7331 171.933 86.2664 173.8 77.7331 168.6C68.6664 163 67.3331 157.8 67.3331 129.267C67.3331 107 67.5998 104.333 69.7331 103.133C72.1331 101.667 71.4664 101.4 63.9998 101.4C56.6664 101.4 56.3998 101.533 58.5331 103.8C60.2664 105.533 60.6664 109.933 60.6664 130.467C60.6664 158.067 61.3331 161.133 69.0664 167.933C81.5998 178.867 103.733 176.6 112.666 163.4C115.866 158.733 116 157.667 116.666 131.133C117.333 105.933 117.6 103.133 120.4 97.4C123.866 90.4667 129.2 86.4667 137.466 84.4667C142.266 83.4 142.266 83.2667 138.666 83.1333C136.533 83.1333 132.4 83.9333 129.6 85Z" fill="white"/>
<path d="M182.266 101.4C179.066 101.667 178 102.333 178.533 103.667C178.933 104.733 173.733 112.333 166.533 121.267C159.733 129.933 154.133 137.4 154.4 137.933C154.533 138.467 164 148.733 175.466 160.6C199.866 186.2 205.333 189.8 219.866 190.467C227.866 190.867 228.666 190.733 225.333 189.533C206.666 182.867 204.4 181.133 181.733 157.267L160.533 134.6L163.6 131.133C165.333 129.267 171.466 122.333 177.333 115.8C183.066 109.4 189.066 103.667 190.533 103.133C193.066 102.2 192.933 102.067 189.866 101.533C188.133 101.267 184.666 101.133 182.266 101.4Z" fill="white"/>
<path d="M141.066 104.067C143.066 106.2 143.333 110.6 143.333 137.933C143.333 170.867 143.2 171.267 137.333 172.733C135.866 173 140.133 173.4 146.666 173.4C155.866 173.533 157.866 173.133 155.333 172.2C153.6 171.4 151.6 170.2 151.066 169.267C150.533 168.333 150 154.067 150 137.267C150 108.733 150.133 106.867 152.666 104.333L155.333 101.667H147.066C139.2 101.667 139.066 101.8 141.066 104.067Z" fill="white"/>
<path d="M203.333 200.333C201.733 201.267 201.733 201.933 203.067 203.267C204.267 204.467 205.067 204.467 206.267 203.267C208.4 201.133 206 198.733 203.333 200.333Z" fill="white"/>
<path d="M189.333 212.333C188.4 213.933 189.6 216.333 191.467 216.333C193.067 216.333 193.067 212.733 191.467 211.667C190.8 211.267 189.867 211.533 189.333 212.333Z" fill="white"/>
<path d="M173.066 223.267C173.333 224.2 174.4 225 175.333 225C176.266 225 177.333 224.2 177.733 223.267C178 222.333 177.066 221.667 175.333 221.667C173.6 221.667 172.666 222.333 173.066 223.267Z" fill="white"/>
<path d="M157.467 229.133C154.533 230.2 148.933 231.4 145.067 231.933C141.2 232.333 138 233.267 138 233.8C138 234.467 140 234.6 142.4 234.2C148.933 233 167.333 228.067 167.333 227.533C167.333 226.467 162.533 227.267 157.467 229.133Z" fill="white"/>
</svg>
