<svg xmlns="http://www.w3.org/2000/svg" style="display: none;">
  <defs>
    <symbol id="send" width="24" height="24" viewBox="0 0 24 24">
      <path d="M2.01 21 23 12 2.01 3 2 10l15 2-15 2 .01 7Z"/>
    </symbol>
    <symbol id="arrow-right" width="24" height="24" viewBox="0 0 24 24">
      <path d="m14.2 4.8 6.5 6.5.71.7-.7.7-6.5 6.5-1.42-1.4 4.8-4.8H3v-2h14.59l-4.8-4.8 1.42-1.4Z"/>
    </symbol>
    <symbol id="chevron-right" width="24" height="24" viewBox="0 0 24 24">
      <path d="m13.59 12-5.8-5.8 1.42-1.4 6.5 6.5.7.7-.7.7-6.5 6.5-1.42-1.4 5.8-5.8Z"/>
    </symbol>
    <symbol id="github" width="24" height="24" viewBox="0 0 24 24">
      <path d="M7.94 4.14602L11.422 10.176L5.482 20.469L2 14.44L7.94 4.14602ZM10.116 14.44H22L18.518 20.469H6.635L10.116 14.44ZM14.459 13.44L8.518 3.14502H15.482L21.422 13.44H14.459Z"/>
    </symbol>
    <symbol id="menu" width="24" height="24" viewBox="0 0 24 24">
      <path d="M22 6H2V4h20v2ZM2 13h16v-2H2v2Zm0 7h20v-2H2v2Z"/>
    </symbol>
    <symbol id="figma" width="24" height="24" viewBox="0 0 24 24">
      <path fill-rule="evenodd" d="M20.07 6.35003H15V7.76003H20.09L20.07 6.35003ZM19 16.05C18.6154 16.3049 18.1612 16.4342 17.7 16.42C17.3947 16.4519 17.0862 16.4203 16.7937 16.3274C16.5011 16.2345 16.2309 16.0822 16 15.88C15.5739 15.3954 15.3518 14.7647 15.38 14.12H22C22.0472 13.4486 21.9899 12.7739 21.83 12.12C21.6744 11.4982 21.403 10.9113 21.03 10.39C20.6534 9.88534 20.1681 9.47181 19.61 9.18003C18.9881 8.87465 18.3028 8.72047 17.61 8.73003C16.9584 8.72579 16.3124 8.85158 15.71 9.10003C15.1584 9.33229 14.6586 9.67225 14.24 10.1C13.8224 10.5361 13.499 11.0535 13.29 11.62C13.0657 12.2316 12.9539 12.8787 12.96 13.53C12.9493 14.1907 13.0577 14.8478 13.28 15.47C13.4695 16.0331 13.7685 16.5531 14.16 17C14.5659 17.4382 15.0648 17.7799 15.62 18C16.2391 18.2359 16.8976 18.3513 17.56 18.34C18.4894 18.369 19.407 18.1257 20.2 17.64C21.0015 17.0715 21.5783 16.2399 21.83 15.29H19.62C19.5017 15.6042 19.284 15.871 19 16.05ZM15.57 11.93C15.6478 11.6807 15.777 11.4505 15.9493 11.2541C16.1215 11.0578 16.3329 10.8997 16.57 10.79C16.8842 10.6494 17.2259 10.581 17.57 10.59C17.8186 10.5688 18.0689 10.6016 18.3036 10.6862C18.5384 10.7707 18.7521 10.9051 18.93 11.08C19.2702 11.4957 19.4883 11.9977 19.56 12.53H15.41C15.4262 12.3268 15.463 12.1258 15.52 11.93H15.57ZM10.28 11.45C10.789 11.2381 11.2312 10.8926 11.56 10.45C11.8634 9.98057 12.0137 9.42851 11.99 8.87003C12.0089 8.36092 11.9096 7.85436 11.7 7.39003C11.5233 6.98795 11.2397 6.64205 10.88 6.39003C10.4993 6.12689 10.066 5.94948 9.61 5.87003C9.07087 5.75662 8.52088 5.70296 7.97 5.71003H2V18.29H8.1C8.65666 18.2899 9.21106 18.2193 9.75 18.08C10.2604 17.947 10.7441 17.7271 11.18 17.43C11.6026 17.1387 11.9462 16.747 12.18 16.29C12.4403 15.78 12.5676 15.2124 12.55 14.64C12.5689 13.9308 12.37 13.2327 11.98 12.64C11.5606 12.044 10.9385 11.6209 10.23 11.45H10.28ZM4.77 7.86003H7.36C7.59798 7.85887 7.83559 7.87895 8.07 7.92003C8.28622 7.95096 8.49381 8.02583 8.68 8.14003C8.86035 8.24204 9.00648 8.39513 9.1 8.58003C9.21673 8.80141 9.27198 9.05004 9.26 9.30003C9.27863 9.51527 9.24572 9.73185 9.16399 9.93183C9.08225 10.1318 8.95405 10.3095 8.79 10.45C8.43212 10.6961 8.00388 10.8189 7.57 10.8H4.77V7.86003ZM9.61 15.3C9.50646 15.5033 9.35127 15.6757 9.16 15.8C8.9603 15.9242 8.74027 16.0122 8.51 16.06C8.2541 16.1176 7.99226 16.1445 7.73 16.14H4.73V12.69H7.73C8.24482 12.6675 8.75322 12.8112 9.18 13.1C9.37281 13.2731 9.52217 13.4891 9.61599 13.7305C9.7098 13.972 9.74543 14.2322 9.72 14.49C9.74594 14.7649 9.7083 15.042 9.61 15.3Z"/>
    </symbol>
    <symbol id="copy" width="24" height="24" viewBox="0 0 24 24">
      <path d="M3 2h12v4H7v10H3V2Zm6 20V8h12v11l-3 3H9Z"/>
    </symbol>
    <symbol id="error" width="24" height="24" viewBox="0 0 24 24">
      <path d="M19.7 19H4.3L12 5.07 19.7 19ZM11.12 2.52l-9.39 17L2.61 21h18.78l.88-1.48-9.4-17h-1.75ZM11 14v-4h2v4h-2Zm0 3v-2h2v2h-2Z"/>
    </symbol>
    <symbol id="arrow-left" width="24" height="24" viewBox="0 0 24 24">
      <path d="m9.8 19.2-6.5-6.5-.71-.7.7-.7 6.5-6.5 1.42 1.4L6.4 11H21v2H6.41l4.8 4.8-1.42 1.4Z"/>
    </symbol>
    <symbol id="check" width="24" height="24" viewBox="0 0 24 24">
      <path d="m20.2 7.2-10 10-.7.71-.7-.7-5-5 1.4-1.42 4.3 4.3 9.3-9.3 1.4 1.42Z"/>
    </symbol>
    <symbol id="link" width="24" height="24" viewBox="0 0 24 24">
      <path d="M9 4 8 5v2h2V6h10v7H10v-2H8v3l1 1h12l1-1V5l-1-1H9Zm2 4H3L2 9v9l1 1h12l1-1v-2h-2v1H4v-7h10v2h2V9l-1-1h-4Z"/>
    </symbol>
    <symbol id="close" width="24" height="24" viewBox="0 0 24 24">
      <path d="M19 6.41 17.59 5 12 10.59 6.41 5 5 6.41 10.59 12 5 17.59 6.41 19 12 13.41 17.59 19 19 17.59 13.41 12 19 6.41Z"/>
    </symbol>
    <symbol id="pause" width="24" height="24" viewBox="0 0 24 24">
      <path d="M6 19h4V5H6v14Zm8-14v14h4V5h-4Z"/>
    </symbol>
    <symbol id="play" width="24" height="24" viewBox="0 0 24 24">
      <path d="M8 5v14l11-7L8 5Z"/>
    </symbol>
    <symbol id="bluesky" width="24" height="24" viewBox="0 0 24 24">
      <path d="M9.429 8.969H13.143V10.819C13.678 9.755 15.05 8.799 17.111 8.799C21.062 8.799 22 10.917 22 14.803V22H18V15.688C18 13.475 17.465 12.227 16.103 12.227C14.214 12.227 13.429 13.572 13.429 15.687V22H9.429V8.969ZM2.57 21.83H6.57V8.799H2.57V21.83ZM7.143 4.55C7.14315 4.88528 7.07666 5.21724 6.94739 5.52659C6.81812 5.83594 6.62865 6.11651 6.39 6.352C6.15064 6.59012 5.86671 6.77874 5.55442 6.90708C5.24214 7.03543 4.90763 7.10098 4.57 7.1C3.8896 7.09847 3.23691 6.83029 2.752 6.353C2.5143 6.11665 2.32553 5.83575 2.1965 5.52637C2.06746 5.21699 2.00069 4.88521 2 4.55C2 3.873 2.27 3.225 2.753 2.747C3.2367 2.26788 3.89018 1.99938 4.571 2C5.253 2 5.907 2.269 6.39 2.747C6.873 3.225 7.143 3.873 7.143 4.55Z"/>
    </symbol>
  </defs>
</svg>
