<svg xmlns="http://www.w3.org/2000/svg" style="display: none;">
  <symbol id="katakana-project" viewBox="0 0 300 100">
    <path d="M13.144 13.648C14.488 13.648 15.544 13.2533 16.312 12.464C17.08 11.6747 17.464 10.5867 17.464 9.2C17.464 7.36533 16.9947 5.86133 16.056 4.688C15.1387 3.51467 13.7947 2.928 12.024 2.928C10.744 2.928 9.57067 3.312 8.504 4.08V23.152L13.688 24.432L12.888 26.032H0.76V24.72L3.768 22.352V3.536L0.376 2.448L1.176 0.848H5.528C7.55467 0.848 9.528 0.783999 11.448 0.655998C12.8987 0.570665 13.9547 0.527998 14.616 0.527998C16.1733 0.527998 17.56 0.847998 18.776 1.488C19.992 2.128 20.9307 3.00267 21.592 4.112C22.2533 5.22133 22.584 6.45867 22.584 7.824C22.584 9.33867 22.0187 10.768 20.888 12.112C19.7573 13.4347 18.328 14.48 16.6 15.248C14.872 15.9947 13.1867 16.3253 11.544 16.24L10.072 15.216L10.872 13.616H13.144V13.648ZM51.3258 26H44.9578L38.2698 14.768L36.8298 13.744L37.4058 12.56H39.1018C40.4244 12.56 41.4698 12.1973 42.2378 11.472C43.0058 10.7467 43.3898 9.744 43.3898 8.464C43.3898 6.84267 42.9418 5.50933 42.0458 4.464C41.1711 3.41866 39.8911 2.896 38.2058 2.896C37.0964 2.896 36.0831 3.22666 35.1658 3.888V23.312L38.5898 24.4L37.7898 26H27.4218V24.688L30.4298 22.256V3.472L27.0378 2.448L27.8378 0.848H32.1898C34.0884 0.848 35.9551 0.783999 37.7898 0.655998C39.1551 0.570665 40.1578 0.527998 40.7978 0.527998C42.3124 0.527998 43.6564 0.815998 44.8298 1.392C46.0031 1.968 46.9098 2.75733 47.5498 3.76C48.1898 4.74133 48.5098 5.82933 48.5098 7.024C48.5098 8.58133 47.8378 10.0107 46.4938 11.312C45.1498 12.6133 43.5284 13.5733 41.6298 14.192L43.9338 14.928L48.5738 22.704L52.1258 24.4L51.3258 26ZM69.8608 0.207998C72.2074 0.207998 74.2768 0.751998 76.0688 1.84C77.8821 2.928 79.2794 4.432 80.2608 6.352C81.2421 8.272 81.7328 10.448 81.7328 12.88C81.7328 15.376 80.9861 17.68 79.4928 19.792C77.9994 21.904 76.1434 23.5787 73.9248 24.816C71.7061 26.032 69.5941 26.64 67.5888 26.64C65.2634 26.64 63.2048 26.1067 61.4128 25.04C59.6208 23.952 58.2234 22.448 57.2208 20.528C56.2394 18.608 55.7488 16.432 55.7488 14C55.7488 11.504 56.4954 9.2 57.9888 7.088C59.4821 4.95467 61.3274 3.28 63.5248 2.064C65.7434 0.826665 67.8554 0.207998 69.8608 0.207998ZM68.0048 3.28C66.6821 3.28 65.4768 3.67467 64.3888 4.464C63.3008 5.25333 62.4368 6.352 61.7968 7.76C61.1781 9.168 60.8688 10.736 60.8688 12.464C60.8688 14.4907 61.1781 16.3467 61.7968 18.032C62.4368 19.696 63.3968 21.0293 64.6768 22.032C65.9568 23.0347 67.5461 23.536 69.4448 23.536C70.7674 23.536 71.9728 23.1413 73.0608 22.352C74.1701 21.5627 75.0341 20.4747 75.6528 19.088C76.2928 17.68 76.6128 16.112 76.6128 14.384C76.6128 12.336 76.2928 10.48 75.6528 8.816C75.0341 7.13067 74.0741 5.78666 72.7728 4.784C71.4928 3.78133 69.9034 3.28 68.0048 3.28ZM94.769 22.832C94.769 23.6853 94.7903 24.4747 94.833 25.2C94.897 25.904 94.9717 26.384 95.057 26.64L88.465 34.448L86.929 33.264C88.145 31.728 88.9663 30.4267 89.393 29.36C89.8197 28.2933 90.033 26.9707 90.033 25.392V3.568L86.001 2.448L86.801 0.848H97.809V2.16L94.769 4.528V22.832ZM122.12 26H102.504V24.688L105.512 22.32V3.536L102.12 2.448L102.92 0.848H121.8L123.752 0.271999V7.952L122.472 8.432L118.6 2.672H110.248V12.24H114.76L117.128 8.336H118.44V17.904L116.84 18.704L114.792 14.064H110.248V24.144H118.44L122.792 17.776L124.072 18.256V26.576L122.12 26ZM144.66 0.207998C145.833 0.207998 147.199 0.367999 148.756 0.688C150.313 1.008 151.444 1.34933 152.148 1.712V8.144H150.228C148.351 4.90133 145.876 3.28 142.804 3.28C141.481 3.28 140.276 3.67467 139.188 4.464C138.121 5.25333 137.268 6.352 136.628 7.76C136.009 9.14667 135.7 10.7147 135.7 12.464C135.7 14.448 136.009 16.2613 136.628 17.904C137.247 19.5467 138.185 20.8693 139.444 21.872C140.703 22.8533 142.26 23.344 144.116 23.344C145.951 23.344 148.617 22.096 152.116 19.6L153.204 21.36L147.316 25.936C146.463 26.2133 145.641 26.3947 144.852 26.48C144.063 26.5867 143.22 26.64 142.324 26.64C140.02 26.64 137.972 26.096 136.18 25.008C134.409 23.92 133.033 22.4267 132.052 20.528C131.071 18.608 130.58 16.432 130.58 14C130.58 11.504 131.316 9.2 132.788 7.088C134.281 4.95467 136.127 3.28 138.324 2.064C140.543 0.826665 142.655 0.207998 144.66 0.207998ZM181.433 8.592L180.153 9.072L175.801 2.672H172.281V23.344L175.705 24.4L174.905 26H164.537V24.688L167.545 22.32V2.672H164.121L159.769 9.072L158.489 8.592V0.271999L160.441 0.848H179.481L181.433 0.271999V8.592Z"/>
  </symbol>
  <symbol id="katakana-profile" viewBox="0 0 300 100">
    <text x="0" y="75" font-size="60" font-family="Arial, sans-serif">
      About
    </text>
  </symbol>
</svg>
